<svg xmlns="http://www.w3.org/2000/svg" width="346.389" height="42.533" viewBox="0 0 346.389 42.533"><path id="Union_1" data-name="Union 1" d="M110.554,35.917c-1.345-2.678-1.458-5.717-1.458-8.357V.051h4.51V22.308c0,2.771.229,5.98,1.929,8.775,1.292,2.125,4.56,5.69,11.929,5.7,0,0,5.71-.167,8.328-3.289l.034-.031.029-.064c.039-.136.094-.343.138-.527h0A26.032,26.032,0,0,0,136.4,27.2V5.54a.123.123,0,0,0,0-.019V.041h4.523V18.683q0,2.128,0,4.255c-.008,4.316-2.958,8.317-6.076,12.971a13.071,13.071,0,0,1-5.235,4.845,16.394,16.394,0,0,1-7.072,1.436C116.926,42.19,112.559,39.9,110.554,35.917ZM226.449,41.67,241.768,5.59l3.822-5.3c.221.55.633,1.592.839,2.114l.176.445c.3.736.7,1.717,1.1,2.7s.8,1.963,1.1,2.7c2.169,5.274,4.979,12.1,7.771,18.884,2.1,5.1,4.189,10.174,5.987,14.544h-5.319l-5.015-12.2-.152,0H234.059L234,29.6,228.976,41.67Zm9.857-17.61H250l-.131-.312c-1.025-2.452-2.372-5.634-3.674-8.71-1.005-2.377-2.01-4.75-2.879-6.816l-.209-.5ZM151.819,41.652V5.538a.148.148,0,0,1,0-.019V5.424h.008a3.32,3.32,0,0,1,.4-.919c.062-.113.121-.219.169-.315.278-.557.607-1.152,1.036-1.874.035-.059.091-.162.161-.293C154.51.308,154.865.051,155,.051H165.7c4.718,0,9.177.3,11.894,3.918a10.379,10.379,0,0,1,1.4,8.718,23.247,23.247,0,0,1-2.913,6.11,14.709,14.709,0,0,1-3.447,4.128,9.393,9.393,0,0,1-.782.528l-.2.124.134.2c1.562,2.281,3.595,5.188,5.559,8,2.556,3.656,5.194,7.429,6.835,9.879l-7.286-.009L165.915,25.12l-.131.008c-.979.066-1.966.074-2.8.074l-.926,0-.915,0h-4.814V41.652Zm4.508-32.4V19.787h8.592c.28,0,.56,0,.842,0s.569,0,.854,0c3.331,0,6.548-.165,9.275-2.156.063-.045.123-.093.184-.14l.148-.117s.025-.147.03-.176a11.483,11.483,0,0,0-.264-4.767,9.236,9.236,0,0,0-5.381-5.911,17.889,17.889,0,0,0-7.063-1.1c-.6,0-1.193.01-1.784.02s-1.156.018-1.723.018h-3.707Zm115.128,32.4V.044h3.057L297.1,30.1V.006h4.508V36.155a2.645,2.645,0,0,1-.41,1.033c-.063.113-.121.218-.169.314-.277.556-.607,1.152-1.036,1.875-.141.23-1.126,1.724-1.516,2.176L275.963,11.588V41.651Zm-67.89-.005q-2.141-.009-4.282-.009l-3.316,0-3.107,0V39.28h0V5.462h.006a3.057,3.057,0,0,1,.4-.957c.062-.112.121-.218.169-.314.278-.557.607-1.153,1.037-1.875.034-.058.088-.161.159-.292C195.55.308,195.9.052,196.034.052h.776c1.355,0,2.737-.013,4.072-.026S203.6,0,204.955,0c1.973,0,3.6.029,5.115.09,2.28.093,6.391.725,8.315,3.925.852,1.419,2.521,5.342-.4,11.111a33.515,33.515,0,0,1-2.049,3.616l-.148.217.236.113a7.565,7.565,0,0,1,4.181,4.553,11.089,11.089,0,0,1-.615,8c-1.518,3.409-3.524,7.1-6.895,8.672a19.728,19.728,0,0,1-8.451,1.355Zm-6.2-5.414,4.669,0,5.657,0c3.384,0,6.924-.165,9.814-2.132l.08-.056.015-.1c.034-.211.058-.407.072-.6a9.941,9.941,0,0,0-.74-4.816c-1.524-3.386-4.738-4.531-7.681-5.2l-.024-.005H197.369ZM197.7,5.461h-.334v12.46h15.243l.022,0a10.233,10.233,0,0,0,3.8-1.516l.078-.053.017-.094a8.518,8.518,0,0,0,.122-1.046,8.661,8.661,0,0,0-3.695-7.985c-2.5-1.573-5.306-1.725-8.456-1.752-1.126-.011-2.331-.015-3.79-.015Q199.207,5.457,197.7,5.461ZM81.766,41.646q-2.14-.009-4.281-.009l-3.317,0-3.107,0V39.28h0V5.462h.007a3.015,3.015,0,0,1,.4-.957c.061-.112.121-.218.168-.314.279-.557.608-1.153,1.037-1.875.034-.058.089-.161.16-.292.916-1.717,1.27-1.973,1.4-1.973h.777c1.355,0,2.736-.013,4.072-.026S81.8,0,83.156,0c1.972,0,3.6.029,5.115.09,2.28.093,6.391.725,8.314,3.925.853,1.419,2.522,5.342-.4,11.111a33.211,33.211,0,0,1-2.049,3.616l-.147.217.236.113a7.563,7.563,0,0,1,4.181,4.553,11.089,11.089,0,0,1-.614,8c-1.518,3.409-3.524,7.1-6.895,8.672a19.73,19.73,0,0,1-8.451,1.355Zm-6.2-5.414,4.668,0,5.657,0c3.384,0,6.924-.165,9.814-2.132l.081-.056.015-.1c.033-.211.058-.407.072-.6a9.952,9.952,0,0,0-.741-4.816c-1.524-3.386-4.738-4.531-7.68-5.2l-.025-.005H75.57ZM75.9,5.461H75.57v12.46H90.813l.022,0a10.22,10.22,0,0,0,3.8-1.516l.079-.053.016-.094a8.345,8.345,0,0,0,.122-1.046A8.66,8.66,0,0,0,91.16,7.224C88.664,5.651,85.854,5.5,82.7,5.472c-1.126-.011-2.331-.015-3.79-.015Q77.409,5.457,75.9,5.461ZM338.3,41.642q-3.573-5.507-7.149-11.012T324,19.614l-.154-.238-.2.2c-1.957,2.021-3.852,3.97-5.609,5.772l-.064.066V41.628H317.9v.012H313.4l0-41.586h1.612v0h2.967v22.6l.386-.4c3.748-3.818,7.16-7.433,10.461-10.93,3.4-3.6,6.914-7.324,10.8-11.272h2.988C338.731,4,333.678,9.22,328.786,14.275l-.952.984.1.152c2.344,3.535,5.54,8.133,8.631,12.581,3.414,4.911,6.941,9.984,9.334,13.65ZM1.2,36.252A1.4,1.4,0,0,1,.014,34.673L4.4,7.124a1.4,1.4,0,1,1,2.766.393L4.04,27.158A36.358,36.358,0,0,1,7.249,23.05,60.807,60.807,0,0,1,25.065,8.491a20.668,20.668,0,0,1,3.826-1.735,1.551,1.551,0,0,1,1.878,1.2c0,1.239-3.295,2.338-4.038,2.692a51.65,51.65,0,0,0-20.652,18.6,24.328,24.328,0,0,0-2.16,4c-.567,1.558-.886,2.975-2.091,2.975a.94.94,0,0,1-.1-.006,1.371,1.371,0,0,1-.334.046A1.35,1.35,0,0,1,1.2,36.252Zm40.083-6.331a5.9,5.9,0,0,1,.046-.679c-1.927,1.574-4.1,2.911-5.785,2.911A2.338,2.338,0,0,1,33,29.724a11.617,11.617,0,0,1-6.946,2.748,4.663,4.663,0,0,1-4.108-2.551c-.144.089-.292.177-.44.264a8.844,8.844,0,0,1-4.555,1.968A2.343,2.343,0,0,1,14.4,29.674c0-1.948,1.666-4.5,2.409-5.491a44.332,44.332,0,0,1,3.259-4.073,1.419,1.419,0,0,1,1.027-.5,1.388,1.388,0,0,1,1.346,1.31,1.455,1.455,0,0,1-.319.921c-1.985,2.3-5.03,5.881-5.03,7.439,0,.141-.036.176.177.212a7.728,7.728,0,0,0,2.855-1.575c.878-.725,2.125-1.783,2.565-2.145a43.1,43.1,0,0,0,7.581-8.961,1.532,1.532,0,0,1,1.2-.886,1.509,1.509,0,0,1,1.417,1.488,1.429,1.429,0,0,1-.106.85,12.408,12.408,0,0,0-.5,5,18.571,18.571,0,0,1-.355,3.967A19.171,19.171,0,0,0,35,24.746c.149-.218.285-.41.4-.562a44.485,44.485,0,0,1,3.259-4.073,1.419,1.419,0,0,1,1.027-.5,1.388,1.388,0,0,1,1.346,1.31,1.455,1.455,0,0,1-.319.921c-.643.745-1.4,1.625-2.12,2.525a9.2,9.2,0,0,1-.762.971c-1.19,1.562-2.147,3.069-2.147,3.943,0,.141-.035.176.177.212,1.169-.036,4.959-3.118,6.447-4.605.355-.379.712-.787,1.088-1.176.525-.968,1.053-1.841,1.462-2.507a4.906,4.906,0,0,1-.886.071A1.189,1.189,0,0,1,42.63,20.11a1.66,1.66,0,0,1,1.2-1.524,15.214,15.214,0,0,1,3.047-.389,52.312,52.312,0,0,1,4.109-5.385,1.655,1.655,0,0,1,1.1-.461,1.22,1.22,0,0,1,1.24,1.276,1.675,1.675,0,0,1-.212.85c-.284.461-1.24,1.559-1.524,1.948l-1.239,1.7a23.92,23.92,0,0,1,2.684-.036,1.587,1.587,0,0,1,1.452,1.488,1.3,1.3,0,0,1-1.275,1.24c-.248.035-3.817,0-4.774.071-1.133,1.594-4.428,6.376-4.428,8.714,0,.708.248.957,1.205.957,2.622,0,6.766-2.692,8.359-4,1.028-.815,1.984-2.125,3.011-2.975a1.492,1.492,0,0,1,.921-.39c.85,0,1.027.921,1.027,1.488a1.378,1.378,0,0,1-.46.992c-2.905,3.365-8.643,7.722-13.107,7.722C43.126,33.393,41.284,32.472,41.284,29.921Zm-16.958-2.08q-.192.18-.391.361a2.328,2.328,0,0,0,2.187,1.542,2.863,2.863,0,0,0,2.621-1.559,10.824,10.824,0,0,0,.886-4.817l-.035-1.275A58.981,58.981,0,0,1,24.326,27.842ZM40.015,17.053a1.645,1.645,0,1,1,1.639,1.507A1.578,1.578,0,0,1,40.015,17.053Zm-17.78,0a1.645,1.645,0,1,1,1.639,1.507A1.578,1.578,0,0,1,22.235,17.053Z" transform="translate(0.173 0.172)" fill="#abaaa3" stroke="##abaaa3" stroke-miterlimit="10" stroke-width="0.343"></path></svg>