<?xml version="1.0" standalone="no"?>
<!DOCTYPE svg PUBLIC "-//W3C//DTD SVG 20010904//EN"
 "http://www.w3.org/TR/2001/REC-SVG-20010904/DTD/svg10.dtd">
<svg version="1.0" xmlns="http://www.w3.org/2000/svg"
 width="700.000000pt" height="700.000000pt" viewBox="0 0 700.000000 700.000000"
 preserveAspectRatio="xMidYMid meet">
<metadata>
Created by potrace 1.14, written by Peter Selinger 2001-2017
</metadata>
<g transform="translate(0.000000,700.000000) scale(0.100000,-0.100000)"
fill="#000000" stroke="none">
<path d="M1109 6100 c-165 -28 -370 -117 -506 -219 -250 -188 -415 -472 -468
-806 -32 -201 -41 -142 244 -1645 144 -756 270 -1420 281 -1476 39 -201 127
-418 232 -571 73 -108 226 -256 330 -321 159 -99 346 -160 556 -182 110 -11
156 -8 1705 119 876 72 1646 138 1712 147 339 43 629 215 847 504 96 128 209
351 267 527 38 116 523 2287 557 2492 45 273 22 510 -65 696 -92 195 -248 331
-479 415 -176 64 -333 85 -732 100 -162 5 -479 19 -705 30 -225 11 -547 27
-715 35 -168 8 -541 26 -830 40 -763 36 -840 41 -1444 85 -541 39 -696 45
-787 30z m677 -480 c302 -22 565 -42 584 -45 39 -6 2579 -131 3355 -165 247
-11 369 -31 470 -78 87 -41 146 -98 181 -175 25 -56 28 -75 32 -194 2 -75 -1
-161 -7 -200 -31 -184 -517 -2351 -548 -2443 -111 -334 -295 -561 -536 -663
-84 -35 -173 -54 -292 -62 -49 -3 -774 -63 -1610 -132 -1415 -118 -1526 -125
-1610 -115 -182 23 -308 83 -430 206 -125 126 -194 265 -241 481 -13 61 -141
718 -285 1460 -288 1490 -273 1390 -229 1570 74 310 282 533 540 580 41 7 75
14 76 14 0 1 248 -17 550 -39z"/>
<path d="M1390 3500 l0 -1240 498 0 c283 0 534 4 582 10 535 66 942 444 1045
972 26 131 30 323 11 457 -83 559 -482 954 -1039 1030 -47 7 -283 11 -588 11
l-509 0 0 -1240z m1105 726 c118 -34 204 -84 291 -170 160 -160 223 -343 211
-608 -6 -142 -23 -211 -77 -323 -64 -132 -166 -236 -294 -299 -121 -60 -171
-68 -463 -73 l-263 -5 0 752 0 752 268 -5 c211 -3 280 -8 327 -21z"/>
<path d="M3750 3500 l0 -1240 603 0 c342 0 641 5 692 10 377 43 620 229 679
522 9 42 16 110 16 150 -2 266 -111 451 -334 564 -53 27 -96 51 -96 54 0 3 20
18 44 33 62 39 151 138 185 206 53 103 66 164 65 301 0 109 -4 135 -27 203
-64 184 -198 318 -384 382 -148 52 -198 55 -844 55 l-599 0 0 -1240z m1160
744 c74 -22 127 -60 158 -113 23 -40 27 -57 27 -126 0 -126 -44 -189 -162
-236 -55 -22 -73 -24 -370 -27 l-313 -4 0 261 0 261 303 0 c248 0 313 -3 357
-16z m154 -993 c77 -31 130 -85 150 -152 44 -148 -14 -276 -150 -330 -58 -23
-67 -24 -436 -27 l-378 -3 0 271 0 271 378 -3 c369 -3 378 -4 436 -27z"/>
</g>
</svg>
