<svg width="256" height="80" viewBox="0 0 256 80" fill="none" xmlns="http://www.w3.org/2000/svg">
<path d="M100.064 30.4543C96 30.4621 92.9755 27.3271 92.9688 23.3596V23.3207C92.9618 19.3921 95.9153 16.1696 100.158 16.1617C102.763 16.1569 104.322 17.0233 105.606 18.2842L103.678 20.5187C102.61 19.5529 101.524 18.9609 100.142 18.9639C97.8148 18.9687 96.141 20.9063 96.144 23.2768L96.1458 23.3157C96.1487 25.6835 97.7894 27.6553 100.157 27.6503C101.736 27.6483 102.702 27.0155 103.786 26.0245L105.722 27.9766C104.304 29.5002 102.726 30.4496 100.064 30.4543Z" fill="#100F0D"/>
<path d="M111.249 30.1992L111.227 16.3806L114.265 16.3759L114.288 30.1942L111.249 30.1992Z" fill="#100F0D"/>
<path d="M126.938 19.1557L126.956 30.172L123.918 30.177L123.899 19.1634L119.696 19.1684L119.691 16.3664L131.135 16.3469L131.14 19.1509L126.938 19.1557Z" fill="#100F0D"/>
<path d="M143.363 24.6369L143.373 30.1457L140.334 30.1504L140.324 24.7002L135.004 16.3398L138.555 16.335L141.858 21.8767L145.203 16.3223L148.657 16.3173L143.363 24.6369Z" fill="#100F0D"/>
<path d="M173.287 23.1866C173.282 20.8187 171.545 18.8442 169.098 18.8492C166.653 18.854 164.956 20.7916 164.961 23.1601V23.1993C164.965 25.5671 166.704 27.5416 169.152 27.5366C171.598 27.5319 173.291 25.5943 173.287 23.2254V23.1866ZM169.117 30.3376C164.855 30.3456 161.793 27.1735 161.785 23.2431V23.206C161.779 19.2757 164.87 16.0549 169.132 16.048C173.394 16.0402 176.458 19.2124 176.464 23.1427V23.1798C176.471 27.1102 173.378 30.3309 169.117 30.3376Z" fill="#100F0D"/>
<path d="M185.169 19.0219L185.174 21.9622L191.763 21.9495L191.768 24.7126L185.179 24.7243L185.186 30.0744L182.148 30.0791L182.125 16.2617L192.64 16.2441L192.645 19.0072L185.169 19.0219Z" fill="#100F0D"/>
<path d="M101.267 60.2594C104.329 60.2545 105.369 58.721 105.365 56.4399C105.361 54.1568 104.121 52.5941 101.09 52.6018L96.4641 52.6088L96.4768 60.2662L101.267 60.2594ZM100.664 49.7978C103.074 49.7931 103.887 48.6832 103.883 46.8577C103.881 45.1636 103.096 44.0896 100.654 44.0926L96.4504 44.0993L96.4604 49.8048L100.664 49.7978ZM92.9922 41.1054L100.843 41.094C105.275 41.086 107.332 43.5931 107.337 46.7553C107.341 48.7094 106.301 50.1455 104.673 50.9633C107.279 51.7083 108.912 53.6942 108.917 56.5616C108.923 60.3129 106.55 63.2503 101.466 63.2581L93.0281 63.2727L92.9922 41.1054Z" fill="#100F0D"/>
<path d="M116.089 55.4108L116.066 41.0695L119.552 41.0618L119.575 55.2084C119.581 58.7619 121.345 60.3567 124.569 60.3519C127.762 60.347 129.519 58.7454 129.514 55.1917L129.489 41.0451L132.975 41.0404L133 55.3816C133.009 60.7949 129.364 63.5064 124.575 63.5132C119.753 63.521 116.099 60.8212 116.089 55.4108Z" fill="#100F0D"/>
<path d="M147.065 54.9016C151.333 54.8949 153.057 52.8717 153.051 49.4815C153.046 46.1244 151.284 44.1043 147.047 44.112L144.996 44.117L145.013 54.9046L147.065 54.9016ZM156.722 63.1656L152.586 63.1724L148.797 57.801C148.308 57.8663 147.755 57.9002 147.2 57.9002L145.018 57.9052L145.027 63.1851L141.54 63.1919L141.504 41.0257L147.172 41.0159C153.265 41.0062 156.626 44.3573 156.634 49.4765C156.64 52.8989 155.113 55.5394 152.215 56.8828L156.722 63.1656Z" fill="#100F0D"/>
<path d="M172.722 60.14C175.784 60.1351 176.823 58.6017 176.819 56.3214C176.815 54.0383 175.577 52.4758 172.546 52.4806L167.919 52.4903L167.931 60.1478L172.722 60.14ZM172.117 49.6786C174.528 49.6736 175.34 48.5637 175.336 46.7382C175.334 45.0441 174.551 43.9714 172.108 43.9731L167.905 43.9811L167.915 49.6863L172.117 49.6786ZM164.445 40.9872L172.297 40.9744C176.73 40.9677 178.786 43.4746 178.791 46.636C178.795 48.5911 177.754 50.027 176.127 50.845C178.734 51.5898 180.365 53.576 180.37 56.4433C180.376 60.1935 178.005 63.1319 172.921 63.1387L164.483 63.1533L164.445 40.9872Z" fill="#100F0D"/>
<path d="M195.705 48.1399L192.037 56.912L199.337 56.9005C199.368 56.9005 195.705 48.1399 195.705 48.1399ZM189.475 63.1121L185.957 63.1169L195.627 40.4776H195.822L205.602 63.0848L201.921 63.0897L200.644 59.9965C200.644 59.9965 190.774 60.0131 190.739 60.0131L189.475 63.1121Z" fill="#100F0D"/>
<path d="M215.778 48.4953L215.803 63.0683L212.546 63.0732L212.508 40.5798H212.767L226.997 55.4547L226.973 40.8817L230.231 40.8769L230.268 63.3701H230.009L215.778 48.4953Z" fill="#100F0D"/>
<path d="M251.212 40.8427L255.056 40.8357L245.791 53.8259L255.614 63.0001L250.761 63.0098L242.373 55.1673L242.386 63.0215L238.9 63.0293L238.863 40.8622L242.35 40.8572L242.37 53.2446L251.212 40.8427Z" fill="#100F0D"/>
<mask id="mask0_7100_16359" style="mask-type:luminance" maskUnits="userSpaceOnUse" x="0" y="0" width="72" height="80">
<path d="M0.00587433 -1.52588e-05L0.00390625 79.9995L61.3393 40.0962L0.00587433 -1.52588e-05ZM12.2291 -1.52588e-05H49.7825C68.9792 0.124611 77.5396 22.427 66.484 35.5903C65.9965 35.2252 65.5284 34.8453 65.0118 34.5076L12.2291 -1.52588e-05Z" fill="white"/>
</mask>
<g mask="url(#mask0_7100_16359)">
<path d="M0.00587433 -1.52588e-05L0.00390625 79.9995L61.3393 40.0962L0.00587433 -1.52588e-05ZM12.2291 -1.52588e-05H49.7825C68.9792 0.124611 77.5396 22.427 66.484 35.5903C65.9965 35.2252 65.5284 34.8453 65.0118 34.5076L12.2291 -1.52588e-05Z" fill="url(#paint0_linear_7100_16359)"/>
</g>
<path d="M0 79.9995H49.2659C70.8922 80.1377 79.4061 51.9838 61.3354 40.0961L0 79.9995Z" fill="#3E69BC"/>
<defs>
<linearGradient id="paint0_linear_7100_16359" x1="-14.4615" y1="65.526" x2="54.9264" y2="-3.82637" gradientUnits="userSpaceOnUse">
<stop stop-color="#473C9E"/>
<stop offset="1" stop-color="#5AC8C5"/>
</linearGradient>
</defs>
</svg>
