<svg width="63" height="65" viewBox="0 0 63 65" fill="none" xmlns="http://www.w3.org/2000/svg">
<g clip-path="url(#clip0_313_39)">
<path d="M12.9943 59.2731H12.178C11.8995 59.2731 11.6271 59.2469 11.3617 59.1995V62.1743C11.3617 63.7318 12.6102 64.9989 14.1448 64.9989H19.7669C21.3015 64.9989 22.55 63.7318 22.55 62.1743V59.2731H12.9943Z" fill="white"/>
<path d="M50.0056 59.2731H40.45V62.1743C40.45 63.7318 41.6985 64.9989 43.2331 64.9989H48.8551C50.3897 64.9989 51.6382 63.7318 51.6382 62.1743V59.166C51.3196 59.2355 50.9893 59.2731 50.6505 59.2731H50.0056H50.0056Z" fill="white"/>
<path d="M59.2406 34.1404H60.7057C61.9708 34.1404 63 33.0959 63 31.8119V20.6427C63 19.3588 61.9708 18.3142 60.7057 18.3142H59.2406C57.9756 18.3142 56.9464 19.3587 56.9464 20.6427V21.4889H55.3454V9.66633C55.3454 7.03902 53.2393 4.90153 50.6506 4.90153H44.5732V4.20265C44.5732 1.88602 42.7161 0.0012207 40.4334 0.0012207H31.7201C31.6437 0.0012207 31.5701 0.012642 31.5001 0.0325256C31.43 0.0125828 31.3564 0.0012207 31.2801 0.0012207H22.5666C20.284 0.0012207 18.4268 1.88602 18.4268 4.20265V4.90153H12.1781C9.58928 4.90153 7.48324 7.03896 7.48324 9.66633V21.4889H6.05364V20.6427C6.05364 19.3588 5.02443 18.3142 3.75938 18.3142H2.29426C1.0292 18.3142 0 19.3587 0 20.6427V31.8119C0 33.0958 1.0292 34.1404 2.29426 34.1404H3.75938C5.02443 34.1404 6.05364 33.0959 6.05364 31.8119V23.1458H7.48324V52.8348C7.48324 55.1794 9.16101 57.1325 11.3617 57.526C11.6271 57.5734 11.8995 57.5996 12.1781 57.5996H50.6506C50.9894 57.5996 51.3197 57.5621 51.6383 57.4925C53.7543 57.0308 55.3454 55.1182 55.3454 52.8348V23.1458H56.9464V31.8119C56.9464 33.0958 57.9756 34.1404 59.2407 34.1404H59.2406ZM46.0441 51.5858C44.5583 51.5858 43.3495 50.359 43.3495 48.8511C43.3495 47.3431 44.5583 46.1163 46.0441 46.1163C47.5299 46.1163 48.7387 47.3431 48.7387 48.8511C48.7387 50.359 47.5299 51.5858 46.0441 51.5858ZM31.72 39.4008C31.6437 39.4008 31.5701 39.4123 31.5 39.4321C31.4299 39.4123 31.3563 39.4008 31.28 39.4008H14.1916C13.8983 39.4008 13.6597 39.1587 13.6597 38.861V18.038C13.6597 17.7404 13.8983 17.4982 14.1916 17.4982H31.4143C31.4433 17.4982 31.4718 17.4966 31.5 17.4936C31.5282 17.4966 31.5567 17.4982 31.5857 17.4982H48.8084C49.1017 17.4982 49.3403 17.7404 49.3403 18.038V38.861C49.3403 39.1587 49.1017 39.4008 48.8084 39.4008H31.72ZM14.2613 48.8511C14.2613 47.3432 15.4701 46.1163 16.9559 46.1163C18.4417 46.1163 19.6505 47.3431 19.6505 48.8511C19.6505 50.359 18.4417 51.5858 16.9559 51.5858C15.4701 51.5858 14.2613 50.359 14.2613 48.8511ZM18.4268 11.3564C18.4268 11.3292 18.428 11.302 18.4309 11.2748C18.4338 11.2482 18.4373 11.2209 18.4426 11.1943C18.4478 11.1683 18.4548 11.1416 18.4624 11.1156C18.47 11.0901 18.4793 11.0642 18.4892 11.0393C18.4997 11.0144 18.5108 10.9902 18.5236 10.9659C18.5359 10.9423 18.5499 10.9186 18.5645 10.8967C18.579 10.8736 18.5954 10.8517 18.6123 10.831C18.6292 10.8098 18.6473 10.7896 18.6659 10.7706C18.8368 10.5972 19.0822 10.5073 19.3236 10.5322C19.3499 10.5345 19.3767 10.5387 19.4029 10.544C19.4286 10.5493 19.4548 10.5564 19.4799 10.5641C19.5056 10.5718 19.5306 10.5813 19.5551 10.5913C19.5802 10.602 19.6041 10.6132 19.6274 10.6262C19.6513 10.6387 19.6741 10.6529 19.6962 10.6677C19.7184 10.6825 19.74 10.699 19.7609 10.7157C19.7814 10.7328 19.8018 10.7512 19.8204 10.7707C19.8391 10.7896 19.8572 10.8098 19.8741 10.8311C19.891 10.8518 19.9073 10.8737 19.9219 10.8967C19.9365 10.9186 19.9504 10.9423 19.9627 10.966C19.9755 10.9902 19.9866 11.0145 19.9971 11.0394C20.007 11.0642 20.0163 11.0902 20.0239 11.1157C20.0315 11.1417 20.0385 11.1684 20.0437 11.1944C20.049 11.221 20.0525 11.2483 20.0554 11.2748C20.0583 11.3021 20.0595 11.3293 20.0595 11.3565C20.0595 11.3831 20.0583 11.411 20.0554 11.4376C20.0525 11.4648 20.049 11.492 20.0437 11.5181C20.0385 11.5447 20.0315 11.5713 20.0239 11.5968C20.0163 11.6227 20.007 11.6482 19.9971 11.6731C19.9866 11.698 19.9755 11.7228 19.9627 11.7465C19.9504 11.7707 19.9365 11.7938 19.9219 11.8163C19.9073 11.8388 19.891 11.8607 19.8741 11.882C19.8572 11.9027 19.8391 11.9228 19.8204 11.9424C19.8018 11.9613 19.7814 11.9796 19.7609 11.9968C19.74 12.014 19.7184 12.0299 19.6962 12.0453C19.6741 12.0601 19.6513 12.0743 19.6274 12.0867C19.6041 12.0992 19.5802 12.111 19.5551 12.1217C19.5306 12.1317 19.5056 12.1412 19.4799 12.1489C19.4548 12.1566 19.4286 12.1631 19.4029 12.1684C19.3767 12.1737 19.3499 12.1779 19.3236 12.1808C19.2968 12.1832 19.27 12.1849 19.2432 12.1849C19.2163 12.1849 19.1895 12.1832 19.1627 12.1808C19.1365 12.1779 19.1096 12.1737 19.0834 12.1684C19.0577 12.1631 19.0315 12.1566 19.0059 12.1489C18.9808 12.1412 18.9557 12.1317 18.9306 12.1217C18.9061 12.111 18.8822 12.0992 18.8589 12.0867C18.835 12.0743 18.8123 12.0601 18.7901 12.0453C18.768 12.0299 18.7464 12.014 18.7254 11.9968C18.705 11.9796 18.6846 11.9613 18.6659 11.9424C18.6473 11.9228 18.6292 11.9027 18.6123 11.882C18.5954 11.8607 18.579 11.8388 18.5645 11.8163C18.5499 11.7938 18.5359 11.7707 18.5236 11.7465C18.5108 11.7228 18.4997 11.698 18.4892 11.6731C18.4793 11.6482 18.47 11.6227 18.4624 11.5968C18.4548 11.5713 18.4478 11.5447 18.4426 11.5181C18.4373 11.492 18.4338 11.4648 18.4309 11.4376C18.428 11.411 18.4268 11.3831 18.4268 11.3564ZM42.9403 11.3564C42.9403 11.1381 43.0277 10.925 43.1793 10.7706C43.1986 10.7511 43.2184 10.7327 43.2394 10.7156C43.2598 10.699 43.2814 10.6824 43.3035 10.6676C43.3257 10.6528 43.349 10.6386 43.3723 10.6262C43.3957 10.6132 43.4202 10.6019 43.4446 10.5913C43.4691 10.5812 43.4942 10.5717 43.5199 10.564C43.5455 10.5564 43.5712 10.5493 43.5974 10.5439C43.6237 10.5386 43.6499 10.5345 43.6767 10.5321C43.7298 10.5268 43.784 10.5268 43.8371 10.5321C43.8633 10.5345 43.8901 10.5386 43.9164 10.5439C43.9426 10.5493 43.9683 10.5564 43.9939 10.564C44.019 10.5717 44.0446 10.5812 44.0691 10.5913C44.0936 10.6019 44.1181 10.6132 44.1414 10.6262C44.1648 10.6386 44.1881 10.6528 44.2102 10.6676C44.2324 10.6824 44.254 10.699 44.2744 10.7156C44.2954 10.7327 44.3152 10.7511 44.3339 10.7706C44.3531 10.7896 44.3712 10.8097 44.3881 10.831C44.405 10.8518 44.4207 10.8737 44.4353 10.8967C44.4505 10.9186 44.4639 10.9423 44.4767 10.9659C44.489 10.9902 44.5006 11.0144 44.5105 11.0393C44.521 11.0642 44.5298 11.0901 44.5373 11.1156C44.5455 11.1417 44.5519 11.1683 44.5572 11.1943C44.5624 11.2209 44.5665 11.2482 44.5694 11.2748C44.5718 11.302 44.5729 11.3292 44.5729 11.3564C44.5729 11.3831 44.5718 11.4109 44.5694 11.4375C44.5665 11.4647 44.5624 11.492 44.5572 11.518C44.5519 11.5446 44.5455 11.5713 44.5373 11.5967C44.5298 11.6227 44.521 11.6482 44.5105 11.673C44.5006 11.6979 44.489 11.7227 44.4767 11.7464C44.4639 11.7706 44.4505 11.7938 44.4353 11.8162C44.4207 11.8387 44.405 11.8606 44.3881 11.8819C44.3712 11.9026 44.3531 11.9228 44.3339 11.9423C44.3152 11.9612 44.2954 11.9796 44.2744 11.9967C44.254 12.0139 44.2324 12.0299 44.2102 12.0453C44.1881 12.0601 44.1648 12.0743 44.1414 12.0867C44.1181 12.0991 44.0936 12.1109 44.0691 12.1216C44.0446 12.1317 44.019 12.1411 43.9939 12.1488C43.9683 12.1565 43.9426 12.163 43.9164 12.1684C43.8901 12.1737 43.8633 12.1778 43.8371 12.1808C43.8102 12.1831 43.7834 12.1849 43.7566 12.1849C43.7304 12.1849 43.703 12.1831 43.6767 12.1808C43.6499 12.1778 43.6237 12.1737 43.5974 12.1684C43.5712 12.163 43.5455 12.1565 43.5199 12.1488C43.4942 12.1411 43.4691 12.1317 43.4446 12.1216C43.4202 12.1109 43.3957 12.0991 43.3723 12.0867C43.349 12.0743 43.3257 12.0601 43.3035 12.0453C43.2814 12.0299 43.2598 12.0139 43.2394 11.9967C43.2184 11.9796 43.1986 11.9612 43.1793 11.9423C43.0277 11.7878 42.9403 11.5742 42.9403 11.3564ZM39.093 12.1848H31.72C31.6437 12.1848 31.5701 12.1734 31.5 12.1535C31.4299 12.1734 31.3563 12.1848 31.28 12.1848H23.9069C23.4561 12.1848 23.0906 11.8139 23.0906 11.3563C23.0906 10.8988 23.4561 10.5278 23.9069 10.5278H31.28C31.3563 10.5278 31.4299 10.5393 31.5 10.5591C31.5701 10.5393 31.6437 10.5278 31.72 10.5278H39.093C39.5439 10.5278 39.9094 10.8988 39.9094 11.3563C39.9094 11.8139 39.5439 12.1848 39.093 12.1848ZM24.1194 51.959C24.1194 51.5014 24.4849 51.1305 24.9357 51.1305H38.0642C38.5151 51.1305 38.8806 51.5014 38.8806 51.959C38.8806 52.4165 38.5151 52.7874 38.0642 52.7874H24.9357C24.4849 52.7874 24.1194 52.4165 24.1194 51.959ZM38.0642 46.5717H24.9357C24.4849 46.5717 24.1194 46.2008 24.1194 45.7432C24.1194 45.2857 24.4849 44.9148 24.9357 44.9148H38.0642C38.5151 44.9148 38.8806 45.2856 38.8806 45.7432C38.8806 46.2009 38.5151 46.5717 38.0642 46.5717Z" fill="white"/>
</g>
<defs>
<clipPath id="clip0_313_39">
<rect width="63" height="65" fill="white"/>
</clipPath>
</defs>
</svg>
