<svg width="68" height="51" viewBox="0 0 68 51" fill="none" xmlns="http://www.w3.org/2000/svg">
<g clip-path="url(#clip0_313_44)">
<path d="M63.9184 20.7956C63.5232 20.4861 63.6804 20.1243 64.0912 19.9086C64.595 19.6439 65.1521 19.6062 65.7066 19.5431C67.1228 19.3816 68.0472 18.4009 67.9981 17.1439C67.9471 15.8382 66.926 14.9208 65.487 14.9081C64.029 14.8953 62.5706 14.8812 61.1131 14.9057C60.614 14.914 60.3761 14.7271 60.1687 14.2704C59.2757 12.3039 58.3622 10.3457 57.4041 8.41073C56.221 6.02169 55.0413 3.6265 53.3157 1.56269C52.6515 0.768226 51.8688 0.259676 50.7993 0.240263C49.6601 0.219498 48.5222 0.119729 47.3831 0.103388C37.8409 -0.0338557 28.3002 -0.0420879 18.7568 0.135579C16.3255 0.180794 14.7281 1.06999 13.5685 3.07716C13.3553 3.44601 13.1126 3.79741 12.8959 4.16442C10.9811 7.40702 9.44777 10.8434 7.87779 14.2601C7.65917 14.736 7.40509 14.9364 6.86352 14.921C5.40664 14.8797 3.94769 14.8916 2.49008 14.9127C1.06415 14.9332 0.097523 15.7996 0.0057596 17.0925C-0.0819823 18.3279 0.840405 19.3401 2.25073 19.5292C2.75025 19.5961 3.25465 19.6292 3.72699 19.8222C4.39676 20.0957 4.49108 20.4657 3.94196 20.9313C2.70029 21.9842 1.89343 23.3237 1.44168 24.857C-0.0529788 29.9288 -0.020563 35.0137 1.41012 40.1012C1.85224 41.6734 2.80509 42.5557 4.42491 42.8785C7.26616 43.4449 10.1356 43.7441 13.0137 43.9531C19.5197 44.4256 26.0386 44.569 31.3666 44.6081C40.0099 44.6276 47.4557 44.4745 54.889 43.9468C57.7945 43.7405 60.6891 43.4314 63.5577 42.8676C65.2118 42.5424 66.2085 41.658 66.6099 40.0361C66.6804 39.7516 66.7946 39.4781 66.8651 39.1937C67.7966 35.4343 67.9247 31.6334 67.3033 27.822C66.8695 25.1612 66.199 22.5811 63.9184 20.7956ZM10.8123 15.2331C12.3618 11.8669 13.893 8.49453 15.6854 5.24418C16.6407 3.51174 17.8162 2.69234 19.8891 2.66912C24.5801 2.6164 29.2723 2.55866 33.8426 2.48641C38.9213 2.5503 43.8784 2.54612 48.8348 2.72097C50.1991 2.76913 51.0985 3.25593 51.8158 4.42588C53.9688 7.93781 55.5811 11.7171 57.3044 15.4418C57.7428 16.3893 57.3061 17.1012 56.2836 17.2061C46.6979 18.1898 37.0901 18.546 27.4581 18.2452C22.2903 18.0838 17.1335 17.7669 11.9898 17.2318C10.6635 17.0938 10.2516 16.4515 10.8124 15.2332L10.8123 15.2331ZM10.5317 34.8577C8.17612 34.8389 6.22142 32.8775 6.2068 30.5181C6.19157 28.0693 8.19476 26.0525 10.6013 26.0939C13.0275 26.1355 14.933 28.0838 14.9176 30.5072C14.9024 32.9122 12.9217 34.877 10.5319 34.8578L10.5317 34.8577ZM47.3689 30.2093C46.7912 31.1668 46.2172 32.1271 45.6629 33.0982C45.2262 33.8631 44.6008 34.242 43.7174 34.241C37.2291 34.2338 30.7407 34.2331 24.2523 34.24C23.4279 34.2409 22.8279 33.8795 22.4143 33.1912C21.7834 32.1414 21.1589 31.0872 20.5555 30.0211C19.8923 28.8492 20.4071 27.9502 21.7483 27.9472C25.8267 27.938 29.9052 27.9439 33.9836 27.9439C38.009 27.9437 42.0345 27.9478 46.0599 27.9392C46.6658 27.938 47.2432 27.9723 47.5876 28.5651C47.9333 29.1602 47.6834 29.6879 47.3689 30.2095V30.2093ZM57.4893 34.8619C55.0992 34.8877 53.1046 32.9282 53.0799 30.5299C53.0549 28.1117 54.9717 26.1393 57.384 26.1008C59.7846 26.0623 61.7528 27.9889 61.797 30.4204C61.8404 32.805 59.8704 34.8363 57.4893 34.862V34.8619Z" fill="white"/>
<path d="M65.2558 43.9905C64.6822 44.189 64.0985 44.3718 63.5057 44.4973C60.9346 45.0415 58.3141 45.1835 55.7058 45.4081C55.1607 45.455 55.0469 45.6577 55.0609 46.1414C55.0864 47.0215 55.062 47.9031 55.0668 48.7839C55.0742 50.1593 55.8628 50.9662 57.2394 50.9873C58.2453 51.0028 59.2517 50.9904 60.2579 50.9904C61.2642 50.9898 62.2704 50.9898 63.2765 50.9898C63.3294 50.9898 63.3825 50.9917 63.4354 50.9896C64.7334 50.9385 65.626 50.1654 65.6882 48.8838C65.7619 47.3655 65.7221 45.8417 65.7372 44.3204C65.7408 43.9495 65.6115 43.8674 65.2558 43.9905Z" fill="white"/>
<path d="M12.2429 45.4002C8.93747 45.0694 5.58549 45.0287 2.31601 43.8728C2.31601 45.5128 2.30918 47.1069 2.31795 48.7009C2.326 50.1606 3.12445 50.9759 4.58462 50.987C6.70237 51.0028 8.82036 51.0029 10.9381 50.9877C12.2209 50.9785 12.9456 50.2345 12.9637 48.9399C12.9764 48.0326 12.9311 47.1234 12.9743 46.2181C13.0018 45.6446 12.8402 45.46 12.243 45.4003L12.2429 45.4002Z" fill="white"/>
</g>
<defs>
<clipPath id="clip0_313_44">
<rect width="68" height="51" fill="white"/>
</clipPath>
</defs>
</svg>
