<svg width="47" height="64" viewBox="0 0 47 64" fill="none" xmlns="http://www.w3.org/2000/svg">
<g clip-path="url(#clip0_313_36)">
<path d="M-7.04332e-06 6.3365V45.8838C-7.04332e-06 49.5152 3.64369 51.4713 5.38843 51.4713H6.61918L1.46576 60.8183C0.892586 61.8579 1.27469 63.1631 2.31921 63.7336C2.64845 63.9134 3.00426 63.9987 3.3551 63.9987C4.11714 63.9987 4.8558 63.596 5.24827 62.8842L7.67585 58.4812H39.583L42.0106 62.8842C42.4032 63.5961 43.1417 63.9987 43.9038 63.9987C44.2546 63.9987 44.6105 63.9133 44.9397 63.7336C45.9842 63.1631 46.3663 61.8579 45.7932 60.8183L40.6397 51.4713H41.6115C43.3562 51.4713 46.9999 49.5152 46.9999 45.8838V6.33672C47 -2.11017 -7.04332e-06 -2.11033 -6.10352e-05 6.3365H-7.04332e-06ZM3.34365 27.0647V10.9129C3.34365 9.24428 4.70274 7.89161 6.37924 7.89161H18.7759C20.4524 7.89161 21.8115 9.24428 21.8115 10.9129V27.0647C21.8115 28.7333 20.4524 30.086 18.7759 30.086H6.37924C4.70274 30.086 3.34365 28.7333 3.34365 27.0647ZM4.49287 41.7015C4.49287 39.734 6.0954 38.1391 8.0722 38.1391C10.049 38.1391 11.6515 39.734 11.6515 41.7015C11.6515 43.669 10.049 45.264 8.0722 45.264C6.09546 45.264 4.49287 43.669 4.49287 41.7015ZM10.0434 54.1869L11.5407 51.4713H35.7182L37.2154 54.1869H10.0434ZM38.4884 45.2639C36.5116 45.2639 34.9091 43.6689 34.9091 41.7015C34.9091 39.734 36.5116 38.139 38.4884 38.139C40.4652 38.139 42.0677 39.734 42.0677 41.7015C42.0677 43.6689 40.4652 45.2639 38.4884 45.2639ZM43.7036 27.0647C43.7036 28.7333 42.3445 30.086 40.668 30.086H28.2714C26.5949 30.086 25.2358 28.7333 25.2358 27.0647V10.9129C25.2358 9.24428 26.5949 7.89161 28.2714 7.89161H40.668C42.3445 7.89161 43.7036 9.24428 43.7036 10.9129V27.0647Z" fill="white"/>
</g>
<defs>
<clipPath id="clip0_313_36">
<rect width="47" height="64" fill="white"/>
</clipPath>
</defs>
</svg>
