<svg width="50" height="63" viewBox="0 0 50 63" fill="none" xmlns="http://www.w3.org/2000/svg">
<g clip-path="url(#clip0_313_52)">
<path d="M25.0002 0C11.1934 0 0.000518799 11.0077 0.000518799 24.5861C0.000518799 29.6216 1.28912 33.5207 4.18348 38.1995C7.07784 42.8784 23.5446 62.2919 23.5446 62.2919C24.3451 63.236 25.6554 63.236 26.4562 62.2919C26.4562 62.2919 42.9229 42.8784 45.8173 38.1995C48.7113 33.5207 49.9999 29.6216 49.9999 24.5861C49.9999 11.0077 38.8073 0 25.0002 0ZM25.0002 43.5881C14.3313 43.5881 5.68242 35.0821 5.68242 24.5896C5.68242 14.0972 14.3313 5.5914 25.0002 5.5914C35.6692 5.5914 44.318 14.0972 44.318 24.5896C44.318 35.0821 35.6692 43.5881 25.0002 43.5881ZM27.7576 11.433H16.9936C16.5294 11.433 16.1493 11.8066 16.1493 12.2634V37.3845C16.1493 37.8413 16.5294 38.2149 16.9936 38.2149H20.7937C21.2579 38.2149 21.6381 37.8413 21.6381 37.3845V28.9334H27.7576C32.6639 28.9334 36.6554 25.0077 36.6554 20.1823C36.6554 15.3569 32.6639 11.433 27.7576 11.433ZM27.3351 23.5357H21.6381V16.831H27.3351C29.215 16.831 30.7443 18.3343 30.7443 20.1823C30.7443 22.0303 29.215 23.5357 27.3351 23.5357Z" fill="white"/>
<path d="M27.7574 11.4331H16.9934C16.5292 11.4331 16.149 11.8067 16.149 12.2635V37.3846C16.149 37.8414 16.5292 38.215 16.9934 38.215H20.7935C21.2577 38.215 21.6379 37.8414 21.6379 37.3846V28.9335H27.7574C32.6637 28.9335 36.6552 25.0077 36.6552 20.1824C36.6552 15.357 32.6637 11.4331 27.7574 11.4331ZM27.3348 23.5357H21.6379V16.8311H27.3348C29.2147 16.8311 30.7441 18.3344 30.7441 20.1824C30.7441 22.0303 29.2147 23.5357 27.3348 23.5357Z" fill="white"/>
<path d="M27.7574 11.4331H16.9934C16.5292 11.4331 16.149 11.8067 16.149 12.2635V37.3846C16.149 37.8414 16.5292 38.215 16.9934 38.215H20.7935C21.2577 38.215 21.6379 37.8414 21.6379 37.3846V28.9335H27.7574C32.6637 28.9335 36.6552 25.0077 36.6552 20.1824C36.6552 15.357 32.6637 11.4331 27.7574 11.4331ZM27.3348 23.5357H21.6379V16.8311H27.3348C29.2147 16.8311 30.7441 18.3344 30.7441 20.1824C30.7441 22.0303 29.2147 23.5357 27.3348 23.5357Z" fill="white"/>
</g>
<defs>
<clipPath id="clip0_313_52">
<rect width="50" height="63" fill="white"/>
</clipPath>
</defs>
</svg>
