<svg width="170" height="53" viewBox="0 0 170 53" fill="none" xmlns="http://www.w3.org/2000/svg">
<g clip-path="url(#clip0_563_26)">
<path d="M168.704 7.52653C166.989 5.46169 163.953 5.21387 161.201 5.24212L135.358 4.35442C134.884 4.33807 134.487 4.71723 134.471 5.20098C134.455 5.68473 134.827 6.09016 135.301 6.10652L161.163 6.99471L161.182 6.9957H161.202C164.499 6.95357 166.405 7.47102 167.394 8.66056C168.276 9.72223 168.499 11.4213 168.077 13.8544L163.958 41.8041C163.954 41.8344 163.948 41.8646 163.941 41.8944C162.676 47.1526 158.509 49.0286 155.005 49.0291L12.785 51.2476C8.9862 51.2476 6.54306 48.7139 5.90726 44.1307L1.72574 8.77902C1.7204 8.7354 1.71797 8.69179 1.71894 8.64767C1.78014 4.84015 4.8314 1.76122 8.57529 1.7528L28.1005 2.4234C28.5746 2.43976 28.9719 2.06059 28.9879 1.57684C29.0039 1.0931 28.6324 0.687662 28.1583 0.671306L8.61852 0.000701951H8.58937C3.85317 0.000206309 0 3.93214 0 8.76514V8.81768L4.20483 44.3582C4.96643 49.8504 8.09394 53.0002 12.7986 53.0002L155.019 50.7817C159.184 50.7817 164.159 48.5325 165.632 42.22L165.64 42.1838L169.771 14.1488C170.285 11.1754 169.936 9.009 168.705 7.52653H168.704Z" fill="black"/>
<path d="M29.3498 22.5527C29.3498 19.3707 27.3243 16.8444 22.9524 16.8444H15.2043V39.1528H23.5309C28.5459 39.1528 30.8929 36.2002 30.8929 32.4274C30.8929 29.5403 29.2852 27.5394 26.7133 26.7845C28.321 25.9642 29.3498 24.5209 29.3498 22.5527ZM18.6116 19.8624H22.7586C25.1697 19.8624 25.9415 20.9448 25.9415 22.6508C25.9415 24.4882 25.1377 25.6034 22.7586 25.6034H18.6116V19.8624ZM27.3885 32.296C27.3885 34.5924 26.3597 36.1343 23.3381 36.1343H18.6121V28.4246H23.1773C26.1669 28.4246 27.3889 29.9992 27.3889 32.2955L27.3885 32.296Z" fill="black"/>
<path d="M42.5321 39.4477C47.2581 39.4477 50.8587 36.7246 50.8587 31.279V16.8444H47.4188V31.0822C47.4188 34.6583 45.6824 36.2656 42.5321 36.2656C39.3492 36.2656 37.6132 34.6583 37.6132 31.0822V16.8444H34.1729V31.279C34.1729 36.7246 37.7735 39.4477 42.5321 39.4477Z" fill="black"/>
<path d="M58.9293 33.838H61.0834C61.6303 33.838 62.1768 33.8053 62.6586 33.7393L66.3879 39.1523H70.4708L66.0343 32.8204C68.8957 31.4753 70.4067 28.8181 70.4067 25.3734C70.4067 20.2227 67.0951 16.8439 61.0834 16.8439H55.4895V39.1523H58.9293V33.8375V33.838ZM58.9293 19.961H60.9547C65.1343 19.961 66.8702 21.9951 66.8702 25.3739C66.8702 28.7859 65.1663 30.8195 60.9547 30.8195H58.9293V19.961Z" fill="black"/>
<path d="M74.3306 39.1523H82.6572C87.6722 39.1523 90.0191 36.1997 90.0191 32.4269C90.0191 29.5398 88.4114 27.5389 85.8396 26.784C87.4473 25.9637 88.4755 24.5204 88.4755 22.5522C88.4755 19.3702 86.4501 16.8439 82.0782 16.8439H74.3301V39.1523H74.3306ZM77.7383 19.8624H81.8854C84.2965 19.8624 85.0683 20.9448 85.0683 22.6508C85.0683 24.4882 84.2644 25.6034 81.8854 25.6034H77.7383V19.8624ZM77.7383 28.4251H82.3036C85.2931 28.4251 86.5152 29.9997 86.5152 32.296C86.5152 34.5924 85.4865 36.1343 82.4648 36.1343H77.7388V28.4246L77.7383 28.4251Z" fill="black"/>
<path d="M95.9674 36.0357H105.741L106.995 39.1523H110.627L101.014 16.3849H100.822L91.2414 39.1523H94.7133L95.9669 36.0357H95.9674ZM100.886 24.0942C100.886 24.0942 104.487 32.9191 104.455 32.9191H97.2531L100.886 24.0942Z" fill="black"/>
<path d="M113.683 16.5163V39.1523H116.898V24.4882L130.915 39.4809H131.172V16.8444H127.957V31.5085L113.94 16.5163H113.683Z" fill="black"/>
<path d="M135.899 16.8444V39.1523H139.339V32.5255L141.751 29.5076L148.727 39.1523H152.906L144.001 26.8499L151.749 16.8444H147.859L139.339 27.8997V16.8444H135.899Z" fill="black"/>
<path d="M42.9029 4.35769V4.33538C42.9029 2.14911 41.25 0.473339 38.8569 0.473339H35.8877V8.24203H38.8569C41.2495 8.24203 42.9029 6.54396 42.9029 4.35769ZM37.5629 2.01578H38.8574C40.2276 2.01578 41.1524 2.98129 41.1524 4.35769V4.37999C41.1524 5.75639 40.228 6.6996 38.8574 6.6996H37.5629V2.01578Z" fill="black"/>
<path d="M50.8117 8.37536C53.1606 8.37536 54.8684 6.56627 54.8684 4.35769V4.33538C54.8684 2.1268 53.1825 0.340012 50.8331 0.340012C48.4837 0.340012 46.7764 2.14911 46.7764 4.35769V4.37999C46.7764 6.58857 48.4623 8.37536 50.8117 8.37536ZM48.5274 4.33538C48.5274 3.00359 49.4624 1.91615 50.8112 1.91615C52.16 1.91615 53.1169 3.0259 53.1169 4.35769V4.37999C53.1169 5.71178 52.1819 6.79972 50.8331 6.79972C49.4842 6.79972 48.5274 5.68997 48.5274 4.35818V4.33588V4.33538Z" fill="black"/>
<path d="M62.1133 8.29754L63.8318 3.21424L65.5502 8.29754H67.0074L69.6069 0.473338H67.8559L66.2788 5.73359L64.5715 0.451035H63.1358L61.428 5.73359L59.8514 0.473338H58.0566L60.6562 8.29754H62.1133Z" fill="black"/>
<path d="M75.2211 3.30296L78.9082 8.24203H80.3333V0.473339H78.6799V5.25629L75.1128 0.473339H73.5682V8.24203H75.2211V3.30296Z" fill="black"/>
<path d="M86.6538 8.24203H88.3286V2.04899H90.645V0.473339H84.337V2.04899H86.6538V8.24203Z" fill="black"/>
<path d="M98.0202 8.37536C100.37 8.37536 102.077 6.56627 102.077 4.35769V4.33538C102.077 2.1268 100.391 0.340012 98.042 0.340012C95.6931 0.340012 93.9854 2.14911 93.9854 4.35769V4.37999C93.9854 6.58857 95.6713 8.37536 98.0202 8.37536ZM95.7359 4.33538C95.7359 3.00359 96.6714 1.91615 98.0197 1.91615C99.368 1.91615 100.325 3.0259 100.325 4.35769V4.37999C100.325 5.71178 99.3899 6.79972 98.0416 6.79972C96.6932 6.79972 95.7359 5.68997 95.7359 4.35818V4.33588V4.33538Z" fill="black"/>
<path d="M109.323 8.29754L111.041 3.21424L112.759 8.29754H114.217L116.816 0.473338H115.065L113.488 5.73359L111.78 0.451035H110.345L108.637 5.73359L107.06 0.473338H105.265L107.865 8.29754H109.323Z" fill="black"/>
<path d="M122.43 3.30296L126.117 8.24203H127.541V0.473339H125.889V5.25629L122.321 0.473339H120.776V8.24203H122.43V3.30296Z" fill="black"/>
</g>
<defs>
<clipPath id="clip0_563_26">
<rect width="170" height="53" fill="white"/>
</clipPath>
</defs>
</svg>
